<svg id="Layer_1" data-name="Layer 1" xmlns="http://www.w3.org/2000/svg" xmlns:xlink="http://www.w3.org/1999/xlink" viewBox="0 0 2000 1698.91"><defs><style>.cls-1{fill:url(#linear-gradient);}.cls-2{fill:url(#linear-gradient-2);}.cls-3{fill:url(#linear-gradient-3);}.cls-4{fill:url(#linear-gradient-4);}.cls-5{fill:url(#linear-gradient-5);}.cls-6{fill:url(#linear-gradient-6);}.cls-7{fill:url(#linear-gradient-7);}.cls-8{fill:#00a99d;}.cls-9{fill:url(#linear-gradient-8);}.cls-10{fill:url(#linear-gradient-10);}</style><linearGradient id="linear-gradient" x1="398.41" y1="313.39" x2="503.15" y2="313.39" gradientUnits="userSpaceOnUse"><stop offset="0" stop-color="#c00"/><stop offset="0.3" stop-color="#d00000"/><stop offset="0.56" stop-color="#db0000"/><stop offset="0.82" stop-color="#ed0000"/><stop offset="1" stop-color="red"/></linearGradient><linearGradient id="linear-gradient-2" x1="553.71" y1="179.32" x2="660.41" y2="179.32" xlink:href="#linear-gradient"/><linearGradient id="linear-gradient-3" x1="743.47" y1="87.51" x2="846.36" y2="87.51" xlink:href="#linear-gradient"/><linearGradient id="linear-gradient-4" x1="953.84" y1="51.33" x2="1060.71" y2="51.33" xlink:href="#linear-gradient"/><linearGradient id="linear-gradient-5" x1="1168.31" y1="81.12" x2="1271.99" y2="81.12" xlink:href="#linear-gradient"/><linearGradient id="linear-gradient-6" x1="397.09" y1="724.97" x2="1211.06" y2="724.97" gradientUnits="userSpaceOnUse"><stop offset="0" stop-color="#fc4200"/><stop offset="0.3" stop-color="#fd5a05"/><stop offset="0.92" stop-color="#fe9613"/><stop offset="1" stop-color="#fe9e15"/></linearGradient><linearGradient id="linear-gradient-7" x1="849.55" y1="1051.15" x2="1602.91" y2="1051.15" xlink:href="#linear-gradient-6"/><linearGradient id="linear-gradient-8" x1="785.69" y1="918.44" x2="1411.73" y2="918.44" gradientUnits="userSpaceOnUse"><stop offset="0" stop-color="#0357cf"/><stop offset="1" stop-color="#037af2"/></linearGradient><linearGradient id="linear-gradient-10" x1="0" y1="1564.38" x2="2000" y2="1564.38" xlink:href="#linear-gradient-8"/></defs><path class="cls-1" d="M412.33,272.75l28.42,7.88,22.61-18.94a6.39,6.39,0,0,1,10.49,4.62l1.29,29.45,25,15.63a6.39,6.39,0,0,1-1.15,11.4l-27.62,10.35-7.15,28.61A6.38,6.38,0,0,1,453,364.19l-18.36-23.08-29.41,2.05a6.39,6.39,0,0,1-5.79-9.9l16.26-24.61-11.05-27.34A6.4,6.4,0,0,1,412.33,272.75Z"/><path class="cls-2" d="M584.69,128.31l25.21,15.28,26.9-12.11a6.4,6.4,0,0,1,8.85,7.3l-6.75,28.7,19.84,21.82A6.39,6.39,0,0,1,654.55,200l-29.39,2.47L610.53,228a6.39,6.39,0,0,1-11.44-.7l-11.41-27.19-28.87-6a6.4,6.4,0,0,1-2.89-11.1l22.32-19.27L575,134.47A6.4,6.4,0,0,1,584.69,128.31Z"/><path class="cls-3" d="M789.75,36.11l20.1,21.58L839,53.38a6.39,6.39,0,0,1,6.51,9.43l-14.3,25.77L844.38,115a6.39,6.39,0,0,1-6.94,9.11l-29-5.63-21.07,20.65a6.39,6.39,0,0,1-10.81-3.78L773,106.05,746.9,92.41A6.39,6.39,0,0,1,747.15,81l26.73-12.46,4.89-29.08A6.4,6.4,0,0,1,789.75,36.11Z"/><path class="cls-4" d="M1012.55,3.49l13.37,26.29,29.24,3.9a6.39,6.39,0,0,1,3.67,10.86L1038,65.37l5.35,29a6.4,6.4,0,0,1-9.19,6.85l-26.28-13.41-25.94,14a6.38,6.38,0,0,1-9.35-6.61l4.64-29.13L955.83,45.81a6.4,6.4,0,0,1,3.4-11l29.13-4.61,12.73-26.61A6.39,6.39,0,0,1,1012.55,3.49Z"/><path class="cls-5" d="M1235.24,32.89,1241,61.8l27.1,11.64a6.4,6.4,0,0,1,.6,11.45L1243,99.32l-2.67,29.36a6.39,6.39,0,0,1-10.69,4.12l-21.69-20-28.76,6.52a6.38,6.38,0,0,1-7.21-8.89l12.31-26.79-15.09-25.33a6.39,6.39,0,0,1,6.23-9.62l29.29,3.42,19.43-22.19A6.39,6.39,0,0,1,1235.24,32.89Z"/><path class="cls-6" d="M759.89,1176.09A487.19,487.19,0,0,1,607.47,1041.8a487,487,0,0,1-96.2-310,507.37,507.37,0,0,1,6.18-62.67A482.45,482.45,0,0,1,567.53,521a488.76,488.76,0,0,1,94.61-125,495.3,495.3,0,0,1,77.06-60.27,481.56,481.56,0,0,1,110.68-51.81,488.16,488.16,0,0,1,113.65-22.11,500.67,500.67,0,0,1,80.21.46,467.63,467.63,0,0,1,76,12.84c2.94.75,5,.3,7.15-2,5.84-6.27,11.83-12.39,17.81-18.53q32.07-33,64.16-65.93c3.21-3.3,3.12-3.74-1.09-5.27a597.82,597.82,0,0,0-162.81-35c-5.31-.38-10.72.1-15.94-1.32H971.11a24.14,24.14,0,0,1-3.54.64,536.48,536.48,0,0,0-69.38,7.63,597.49,597.49,0,0,0-181.27,62A604.3,604.3,0,0,0,537,363.7,600.08,600.08,0,0,0,422.53,576.24a606.48,606.48,0,0,0-25.14,154.54,588.61,588.61,0,0,0,1.27,61,607.81,607.81,0,0,0,9.4,72.42,604.43,604.43,0,0,0,348,437.1c1.26.56,2.54,1.08,3.8,1.63Z"/><path class="cls-7" d="M1596.44,749.61c-74.74,0-149.48.14-224.21-.19-8.3,0-13.61,2.49-19,8.73-28.37,32.65-56.14,65.77-82.7,99.91-1,1.33-3.19,2.61-2.49,4.24s3.12.83,4.76.83q99.26.06,198.5,0c5.12,0,5.2.08,4.13,4.41a483.86,483.86,0,0,1-46.51,118.6,492.83,492.83,0,0,1-197.29,195c-66.75,35.81-138.11,54.8-213.72,57.77a475.43,475.43,0,0,1-78-3.44l-90.29,98.4a605.81,605.81,0,0,0,125.05,18.44,595.12,595.12,0,0,0,105.79-4.73,602,602,0,0,0,337.66-162.93,588,588,0,0,0,64.35-72.71c40.85-54.49,71.92-114.06,92.47-179,18.21-57.58,28.19-116.47,28-177C1602.89,749.62,1602.9,749.61,1596.44,749.61Z"/><path class="cls-8" d="M1186.72,471.57H1026.23L942.2,555H785.69V722H956.93l86.17-93.91h3.44V1081l156.51-170.56V628.08h208.68V471.57Z"/><polygon class="cls-8" points="785.69 908.6 785.69 1365.31 942.2 1194.74 942.2 815.89 785.69 815.89 785.69 908.6"/><path class="cls-9" d="M1186.72,471.57H1026.23L942.2,555H785.69V722H956.93l86.17-93.91h3.44V1081l156.51-170.56V628.08h208.68V471.57Z"/><polygon class="cls-9" points="785.69 908.6 785.69 1365.31 942.2 1194.74 942.2 815.89 785.69 815.89 785.69 908.6"/><path d="M0,1429.85H41.51v31.27H0Zm0,49.92H41.51V1645H0Z"/><path d="M165.9,1609.31l.26,39.94q-27.58,0-44.93-17.87-15.51-16-15.5-40.2v-70.94H92.33V1480h13.4v-36.78h42.82V1480H165.9v40.21H148.55v72.25q0,12.09,11,15.77A19.88,19.88,0,0,0,165.9,1609.31Z"/><path d="M219.08,1582.24v-27.06H329.43v27.06Z"/><path d="M454.61,1647.67q-36.53,0-58.33-29.43-17.88-24.16-17.87-56,0-34.69,20.49-59.39,21.81-25.48,55.71-25.74,29.68.25,48.08,20.23v-17.61h41.25V1629q0,36.52-31.26,56-22.33,13.92-51.5,13.93-35.74,0-59.38-19.71a73.94,73.94,0,0,1-6.57-6.31l33.1-23.64Q440.17,1660,461.18,1660q23.64,0,34.94-12.88a24.5,24.5,0,0,0,6.57-16.81v-3.16Q483.78,1647.67,454.61,1647.67Zm48.08-85.13q0-23.91-15-37.31a37.68,37.68,0,0,0-25.75-9.46q-23.91,0-34.94,21.55a55.48,55.48,0,0,0-5.78,25.22q0,23.39,14.71,36.78a37.47,37.47,0,0,0,26,9.73q23.91,0,35-21.55A54,54,0,0,0,502.69,1562.54Z"/><path d="M600,1645V1429.85h41.51V1645Z"/><path d="M774.06,1477.15q43.61,0,67,32,16.82,23.13,16.82,53.6,0,35.75-22.08,59.64-23.38,25.23-61.74,25.23-44.14,0-67.26-32.06-16.31-22.84-16.29-52.81,0-35.73,21.8-60.17Q735.7,1477.15,774.06,1477.15Zm0,38.62q-23.65,0-34.68,21.28a55.1,55.1,0,0,0-6,25.49q0,23.64,15,37a37.73,37.73,0,0,0,25.75,9.46q24.16,0,34.94-21.55a54.94,54.94,0,0,0,5.78-25q0-23.38-14.71-37A37.46,37.46,0,0,0,774.06,1515.77Z"/><path d="M906.33,1429.85h41.51v67.79q18.92-20.51,47.82-20.49,36.52,0,58.59,29.42,17.87,24.43,17.87,56.23,0,34.68-20.49,59.12-22.08,25.49-56,25.75-29.43-.27-47.82-20.23V1645H906.33Zm41.51,132.69q0,23.64,15,37,10.5,9.45,25.75,9.46,23.89,0,34.94-21.55a56.08,56.08,0,0,0,5.52-25q0-23.38-14.72-37-10.5-9.72-25.74-9.72-23.66,0-34.69,21.28A55.21,55.21,0,0,0,947.84,1562.54Z"/><path d="M1279,1645h-41.25v-17.87q-18.91,20.5-48.08,20.5-36.53,0-58.33-29.43-17.88-24.16-17.87-56,0-34.69,20.49-59.39,21.81-25.48,55.71-25.74,29.68.25,48.08,20.23v-17.61H1279Zm-41.25-82.5q0-23.91-15-37.31a37.73,37.73,0,0,0-25.76-9.46q-23.91,0-34.94,21.55a55.48,55.48,0,0,0-5.78,25.22q0,23.39,14.71,36.78a37.47,37.47,0,0,0,26,9.73q23.91,0,35-21.55A54,54,0,0,0,1237.76,1562.54Z"/><path d="M1335.08,1645V1429.85h41.52V1645Z"/><path d="M1474.45,1645h-41.52v-31.27h41.52Z"/><path d="M1530.52,1479.77H1572v10.78q15-13.41,36.26-13.4,31.53,0,49.92,26.27,13.41,19.71,13.4,44.93V1645h-42.82v-96.69q0-19.17-12.09-28.11a23.8,23.8,0,0,0-14.72-4.73q-18.92,0-26.8,17.34a39,39,0,0,0-3.15,15.5V1645h-41.51Z"/><path d="M1877.72,1600.9q-13.93,31.27-45.72,42a92.68,92.68,0,0,1-30,4.73q-44.14,0-67.26-32.06-16.3-22.84-16.29-52.81,0-35.73,21.81-60.17,23.39-25.49,61.74-25.48,42.57,0,64.9,32,16,22.86,16,53.08a85.43,85.43,0,0,1-1.31,16.29h-118q6,22.07,25.22,28.37a41.1,41.1,0,0,0,13.14,2.11q23.91-.27,35-21.81Zm-111.67-61h72q-10-22.59-32.85-24.17H1802q-24.43,0-35.2,22.6C1766.48,1539.07,1766.22,1539.6,1766.05,1539.94Z"/><path d="M1999.74,1609.31l.26,39.94q-27.59,0-44.93-17.87-15.51-16-15.5-40.2v-70.94h-13.4V1480h13.4v-36.78h42.82V1480h17.35v40.21h-17.35v72.25q0,12.09,11,15.77A19.88,19.88,0,0,0,1999.74,1609.31Z"/><path class="cls-10" d="M0,1429.85H41.51v31.27H0Zm0,49.92H41.51V1645H0Z"/><path class="cls-10" d="M165.9,1609.31l.26,39.94q-27.58,0-44.93-17.87-15.51-16-15.5-40.2v-70.94H92.33V1480h13.4v-36.78h42.82V1480H165.9v40.21H148.55v72.25q0,12.09,11,15.77A19.88,19.88,0,0,0,165.9,1609.31Z"/><path class="cls-10" d="M219.08,1582.24v-27.06H329.43v27.06Z"/><path class="cls-10" d="M454.61,1647.67q-36.53,0-58.33-29.43-17.88-24.16-17.87-56,0-34.69,20.49-59.39,21.81-25.48,55.71-25.74,29.68.25,48.08,20.23v-17.61h41.25V1629q0,36.52-31.26,56-22.33,13.92-51.5,13.93-35.74,0-59.38-19.71a73.94,73.94,0,0,1-6.57-6.31l33.1-23.64Q440.17,1660,461.18,1660q23.64,0,34.94-12.88a24.5,24.5,0,0,0,6.57-16.81v-3.16Q483.78,1647.67,454.61,1647.67Zm48.08-85.13q0-23.91-15-37.31a37.68,37.68,0,0,0-25.75-9.46q-23.91,0-34.94,21.55a55.48,55.48,0,0,0-5.78,25.22q0,23.39,14.71,36.78a37.47,37.47,0,0,0,26,9.73q23.91,0,35-21.55A54,54,0,0,0,502.69,1562.54Z"/><path class="cls-10" d="M600,1645V1429.85h41.51V1645Z"/><path class="cls-10" d="M774.06,1477.15q43.61,0,67,32,16.82,23.13,16.82,53.6,0,35.75-22.08,59.64-23.38,25.23-61.74,25.23-44.14,0-67.26-32.06-16.31-22.84-16.29-52.81,0-35.73,21.8-60.17Q735.7,1477.15,774.06,1477.15Zm0,38.62q-23.65,0-34.68,21.28a55.1,55.1,0,0,0-6,25.49q0,23.64,15,37a37.73,37.73,0,0,0,25.75,9.46q24.16,0,34.94-21.55a54.94,54.94,0,0,0,5.78-25q0-23.38-14.71-37A37.46,37.46,0,0,0,774.06,1515.77Z"/><path class="cls-10" d="M906.33,1429.85h41.51v67.79q18.92-20.51,47.82-20.49,36.52,0,58.59,29.42,17.87,24.43,17.87,56.23,0,34.68-20.49,59.12-22.08,25.49-56,25.75-29.43-.27-47.82-20.23V1645H906.33Zm41.51,132.69q0,23.64,15,37,10.5,9.45,25.75,9.46,23.89,0,34.94-21.55a56.08,56.08,0,0,0,5.52-25q0-23.38-14.72-37-10.5-9.72-25.74-9.72-23.66,0-34.69,21.28A55.21,55.21,0,0,0,947.84,1562.54Z"/><path class="cls-10" d="M1279,1645h-41.25v-17.87q-18.91,20.5-48.08,20.5-36.53,0-58.33-29.43-17.88-24.16-17.87-56,0-34.69,20.49-59.39,21.81-25.48,55.71-25.74,29.68.25,48.08,20.23v-17.61H1279Zm-41.25-82.5q0-23.91-15-37.31a37.73,37.73,0,0,0-25.76-9.46q-23.91,0-34.94,21.55a55.48,55.48,0,0,0-5.78,25.22q0,23.39,14.71,36.78a37.47,37.47,0,0,0,26,9.73q23.91,0,35-21.55A54,54,0,0,0,1237.76,1562.54Z"/><path class="cls-10" d="M1335.08,1645V1429.85h41.52V1645Z"/><path class="cls-10" d="M1474.45,1645h-41.52v-31.27h41.52Z"/><path class="cls-10" d="M1530.52,1479.77H1572v10.78q15-13.41,36.26-13.4,31.53,0,49.92,26.27,13.41,19.71,13.4,44.93V1645h-42.82v-96.69q0-19.17-12.09-28.11a23.8,23.8,0,0,0-14.72-4.73q-18.92,0-26.8,17.34a39,39,0,0,0-3.15,15.5V1645h-41.51Z"/><path class="cls-10" d="M1877.72,1600.9q-13.93,31.27-45.72,42a92.68,92.68,0,0,1-30,4.73q-44.14,0-67.26-32.06-16.3-22.84-16.29-52.81,0-35.73,21.81-60.17,23.39-25.49,61.74-25.48,42.57,0,64.9,32,16,22.86,16,53.08a85.43,85.43,0,0,1-1.31,16.29h-118q6,22.07,25.22,28.37a41.1,41.1,0,0,0,13.14,2.11q23.91-.27,35-21.81Zm-111.67-61h72q-10-22.59-32.85-24.17H1802q-24.43,0-35.2,22.6C1766.48,1539.07,1766.22,1539.6,1766.05,1539.94Z"/><path class="cls-10" d="M1999.74,1609.31l.26,39.94q-27.59,0-44.93-17.87-15.51-16-15.5-40.2v-70.94h-13.4V1480h13.4v-36.78h42.82V1480h17.35v40.21h-17.35v72.25q0,12.09,11,15.77A19.88,19.88,0,0,0,1999.74,1609.31Z"/></svg>